<svg xmlns="http://www.w3.org/2000/svg" style="display: none;">
    <symbol id="language">
        <svg width="20" height="20" viewBox="0 0 20 20" fill="none" xmlns="http://www.w3.org/2000/svg">
            <path fill-rule="evenodd" clip-rule="evenodd" d="M13.5056 0.625303C17.0269 1.92971 19.6149 5.14241 19.9998 9H16.0089C15.8465 5.11917 14.749 2.39579 13.5113 0.627428L13.5056 0.625303ZM9.99994 0C6.94212 1.44197 6.09194 6.08485 5.95845 9H13.9971C13.8575 5.95156 12.988 1.64755 9.99994 0ZM6.42862 0.649837C5.19737 2.41872 4.10837 5.13553 3.94666 9H0C0.382508 5.16638 2.94076 1.96966 6.42862 0.649837ZM13.5058 19.3747C17.0272 18.0703 19.6151 14.8576 20 11H16.0091C15.8468 14.8808 14.7492 17.6042 13.5115 19.3726L13.5058 19.3747ZM10.0002 20C6.94236 18.558 6.09219 13.9152 5.95869 11H13.9974C13.8578 14.0484 12.9883 18.3525 10.0002 20ZM6.42887 19.3502C5.19761 17.5813 4.10861 14.8645 3.94691 11H0.000245349C0.382753 14.8336 2.94101 18.0303 6.42887 19.3502Z" fill="white"/>
        </svg>
    </symbol>

    <symbol id="search">
        <svg width="20" height="20" viewBox="0 0 20 20" fill="none" xmlns="http://www.w3.org/2000/svg">
            <path fill-rule="evenodd" clip-rule="evenodd" d="M12.4213 13.5997C11.2924 14.4773 9.87389 14.9998 8.33329 14.9998C4.65139 14.9998 1.66663 12.0151 1.66663 8.33317C1.66663 4.65127 4.65139 1.6665 8.33329 1.6665C12.0152 1.6665 15 4.65127 15 8.33317C15 9.87376 14.4774 11.2923 13.5998 12.4212L18.0892 16.9106C18.4147 17.236 18.4147 17.7637 18.0892 18.0891C17.7638 18.4145 17.2361 18.4145 16.9107 18.0891L12.4213 13.5997ZM13.3333 8.33317C13.3333 11.0946 11.0947 13.3332 8.33329 13.3332C5.57187 13.3332 3.33329 11.0946 3.33329 8.33317C3.33329 5.57175 5.57187 3.33317 8.33329 3.33317C11.0947 3.33317 13.3333 5.57175 13.3333 8.33317Z" fill="#777E91"/>
        </svg>
    </symbol>

    <symbol id="like">
        <svg width="24" height="24" viewBox="0 0 24 24" fill="none" xmlns="http://www.w3.org/2000/svg">
            <path d="M12 4.80957C10.8321 3.6888 9.24649 3 7.5 3C3.91015 3 1 5.91015 1 9.5C1 15.8683 7.97034 19.385 10.8138 20.5547C11.5796 20.8697 12.4204 20.8697 13.1862 20.5547C16.0297 19.385 23 15.8682 23 9.5C23 5.91015 20.0899 3 16.5 3C14.7535 3 13.1679 3.6888 12 4.80957Z" fill="#FF0000"/>
        </svg>
    </symbol>
    <symbol id="rhomb">
        <svg width="20" height="20" viewBox="0 0 20 20" fill="none" xmlns="http://www.w3.org/2000/svg">
            <g clip-path="url(#clip0_32_1175)">
                <path d="M9.99819 0L9.86401 0.455773V13.6801L9.99819 13.8139L16.1366 10.1855L9.99819 0Z" fill="#343434"/>
                <path d="M9.99823 0L3.85962 10.1855L9.99823 13.8139V7.39524V0Z" fill="#8C8C8C"/>
                <path d="M9.99823 14.9762L9.92261 15.0684V19.7791L9.99823 19.9999L16.1404 11.3496L9.99823 14.9762Z" fill="#3C3C3B"/>
                <path d="M9.99823 19.9999V14.9762L3.85962 11.3496L9.99823 19.9999Z" fill="#8C8C8C"/>
                <path d="M9.99829 13.8137L16.1367 10.1852L9.99829 7.39502V13.8137Z" fill="#141414"/>
                <path d="M3.85962 10.1852L9.99823 13.8137V7.39502L3.85962 10.1852Z" fill="#393939"/>
            </g>
            <defs>
                <clipPath id="clip0_32_1175">
                    <rect width="20" height="20" fill="white"/>
                </clipPath>
            </defs>
        </svg>
    </symbol>
</svg>